<svg class="svg-icon" width="32" height="32" fill="currentColor" overflow="hidden" version="1.1" viewBox="0 0 972.74 972.66" xmlns="http://www.w3.org/2000/svg">
 <path d="m947.19 0.0512c-132.86 0-251.24 22.528-351.95 66.97-82.995 36.659-154.06 88.064-211.25 152.88-10.65 12.083-20.531 24.32-29.696 36.608-44.134 2.9184-89.293 20.48-134.35 52.224-38.144 26.829-76.442 64-113.92 110.44-62.976 78.029-101.68 154.98-103.32 158.21a25.6 25.6 0 0 0 40.96 29.594c0.256-0.256 24.73-24.32 66.458-47.923 34.406-19.456 87.45-42.342 151.6-46.387 16.23 41.523 62.669 91.187 84.941 113.46s71.936 68.71 113.46 84.941c-4.0448 64.154-26.931 117.2-46.387 151.6-23.654 41.779-47.667 66.202-47.872 66.406a25.651 25.651 0 0 0 29.542 41.011c3.2256-1.6384 80.179-40.346 158.21-103.32 46.438-37.478 83.61-75.776 110.44-113.92 31.744-45.107 49.254-90.214 52.224-134.35 12.237-9.1136 24.474-18.995 36.608-29.696 64.819-57.19 116.22-128.26 152.88-211.25 44.442-100.66 66.97-219.08 66.97-351.95v-25.6h-25.6zm-839.32 502.17c48.794-70.81 123.39-158.62 207.46-186.21-33.229 58.214-50.432 111.67-56.627 145.56a398.54 398.54 0 0 0-150.84 40.653zm362.8 362.6a397.36 397.36 0 0 0 40.602-150.73c33.843-6.1952 87.347-23.398 145.51-56.576-27.648 83.917-115.4 158.52-186.16 207.31zm248.37-314.37c-106.5 93.952-216.78 115.2-232.65 115.2-0.1024 0-10.598-0.2048-38.861-20.122-19.712-13.875-42.701-33.638-64.614-55.552s-41.677-44.902-55.552-64.614c-19.917-28.262-20.122-38.758-20.122-38.861 0-15.872 21.248-126.16 115.2-232.65 112.44-127.39 284.52-197.07 498.89-202.24-5.1712 214.37-74.803 386.46-202.24 498.89z" fill="#000"/>
 <g stroke="#000" stroke-linecap="round" stroke-linejoin="round">
  <path d="m89.265 867.55 187.46-199.43" fill="#000" stroke-width="60.841"/>
  <path d="m94.102 694.11 116.25-112.83" fill="none" stroke-width="50"/>
  <path d="m260.35 856.94 116.25-112.83" fill="none" stroke-width="50"/>
 </g>
 <g fill="#fff" stroke-linecap="round" stroke-linejoin="round" stroke-miterlimit="10">
  <g stroke-width="85.476">
   <path d="m474.83 660.9c-23.84-11.333-62.569-42.569-97.846-78.917-31.024-31.965-52.106-58.929-63.303-80.963-5.0241-9.8867-5.4071-11.761-4.5169-22.108 2.0169-23.442 19.374-74.148 38.395-112.17 65.542-131 179.58-225.62 332.05-275.51 62.807-20.549 142.2-34.489 213.86-37.553l27.628-1.1812-1.1702 20.358c-5.5459 96.481-20.761 175.39-47.869 248.24-51.653 138.82-144.63 244.56-268.52 305.39-38.426 18.867-84.783 34.593-111.12 37.696-6.9602 0.81997-10.227 0.20856-17.591-3.2922zm210.67-272.76c17.242-4.4097 30.137-11.855 42.836-24.731 34.336-34.816 35.219-91.693 1.9733-127.13-18.76-19.994-40.349-29.611-66.935-29.815-26.268-0.20195-48.526 8.7904-66.671 26.935-17.972 17.972-26.498 38.874-26.498 64.961 0 26.547 8.5917 47.417 27.155 65.961 23.589 23.564 55.454 32.173 88.14 23.814z"/>
   <path d="m470.07 658.26c-24.502-12.679-57.063-39.394-93.051-76.344-43.359-44.519-68.375-80.478-68.369-98.28 6e-3 -20.911 18.123-75.475 38.657-116.43 92.226-183.94 275.38-293.19 523.69-312.38 12.646-0.97716 29.086-1.7767 36.532-1.7767h13.539l-1.1533 20.087c-7.8357 136.48-36.507 244.75-89.517 338.06-64.852 114.15-169.08 201.24-287.54 240.29-22.35 7.3658-48.205 13.578-56.511 13.578-1.726 0-9.0476-3.058-16.27-6.7956zm211.48-269.19c20.39-4.3218 41.153-17.262 53.302-33.219 28.318-37.194 26.168-86.122-5.2792-120.1-18.148-19.608-39.613-29.027-66.274-29.082-26.869-0.0551-48.002 8.5108-66.408 26.916-35.891 35.891-35.973 93.55-0.18583 129.82 22.767 23.076 53.368 32.331 84.845 25.659z"/>
   <path d="m470.97 658.8c-39.185-19.603-114.3-91.087-146.11-139.05-18.061-27.232-19.028-32.109-12.027-60.688 7.7776-31.752 19.287-61.885 36.871-96.533 76.675-151.08 220.81-253.83 410.05-292.3 46.428-9.4396 111.95-17.146 145.93-17.166l14.958-0.0086-0.0169 6.4107c-0.0298 11.311-3.416 55.272-6.0901 79.065-14.43 128.39-56.428 242.43-121.65 330.3-62.377 84.044-149.93 148.51-246.7 181.66-21.366 7.3185-50.556 14.57-58.648 14.57-2.2407 0-9.6996-2.8144-16.575-6.2543zm220.85-272.85c15.837-5.7486 24.896-11.449 36.029-22.67 37.317-37.616 35.047-98.329-5.0123-134.03-17.138-15.275-36.108-22.29-60.366-22.324-27.592-0.0384-48.154 8.884-67.427 29.259-21.735 22.977-29.673 53.467-22.189 85.222 7.5088 31.859 36.598 60.131 69.61 67.657 14.652 3.3401 35.143 2.049 49.355-3.1098z"/>
   <path d="m470.97 658.8c-45.913-22.969-131.87-108.84-157.26-157.11-6.5139-12.383-6.5338-20.303-0.11417-45.44 7.6995-30.149 18.267-57.758 34.585-90.359 52.453-104.79 133.5-184.22 243.38-238.52 50.995-25.199 98.682-41.974 154.71-54.423 50.12-11.136 119.53-19.839 158.56-19.883l15.813-0.01764v6.9451c0 13.211-3.5816 57.27-6.875 84.571-22.683 188.04-100.45 335.86-226.69 430.91-44.771 33.708-91.494 58.398-144.01 76.096-19.54 6.5859-47.955 13.487-55.53 13.487-2.2407 0-9.6996-2.8144-16.575-6.2543zm219.52-272.45c19.704-6.086 40.409-22.721 51.202-41.137 21.14-36.073 15.331-81.453-14.203-110.96-18.418-18.398-39.687-27.352-64.973-27.352-25.756 0-45.687 8.2134-64.302 26.497-20.42 20.057-29.157 42.301-27.53 70.09 1.4919 25.48 9.7729 43.337 28.779 62.061 10.789 10.628 32.02 21.796 45.957 24.172 12.557 2.1416 31.899 0.69346 45.07-3.3745z"/>
   <path d="m473.14 659.97c-21.853-10.338-49.549-32.104-84.765-66.615-28.148-27.584-47.209-49.517-62.732-72.181-17.135-25.018-19.32-32.674-15.144-53.063 6.0645-29.61 17.773-61.493 36.6-99.663 82.03-166.31 240.99-273.26 454.74-305.97 29.825-4.5637 62.382-7.736 91.032-8.87l27.78-1.0995-4e-3 8.3877c-6e-3 12.195-3.0138 50.878-6.1021 78.478-23.182 207.18-116.69 369.83-265.84 462.43-46.088 28.613-99.98 51.261-144.32 60.652-16.518 3.4982-19.016 3.2995-31.243-2.4846zm219.19-274.55c40.669-13.83 66.692-55.659 61.076-98.173-4.9292-37.318-33.288-69.337-68.832-77.715-21.998-5.1853-46.016-2.2169-65.498 8.0949-13.342 7.0619-31.091 24.811-38.153 38.153-18.155 34.3-12.665 76.099 13.707 104.36 26.523 28.422 61.698 37.524 97.7 25.281z"/>
  </g>
  <circle cx="659.87" cy="304.29" r="122.77" stroke="#000" stroke-width="43.79"/>
 </g>
 <g stroke-linecap="round">
  <path d="m86.222 772.7 165.53-159.28" fill="#fff" stroke="#fff" stroke-width="55.641"/>
  <path d="m175.98 870.79 152.98-164.49" fill="#000" stroke="#fff" stroke-width="54.358"/>
  <path transform="matrix(32.425 0 0 32.425 0 -.04)" d="m3.4656 15.361c0-0.06069 0.7117-1.0062 1.2594-1.6732 1.0137-1.2344 2.1019-2.2599 3.1586-2.9764 0.6569-0.44547 1.7196-0.9712 1.7196-0.8507 0 0.010834-0.18924 0.40964-0.42053 0.88624-0.5082 1.0472-0.85518 1.9612-1.0759 2.834l-0.16474 0.65154h-0.17507c-0.83826 0-2.8627 0.51276-3.9442 0.99902-0.19643 0.08831-0.35714 0.14658-0.35714 0.12949z" fill="#fff" stroke="#000" stroke-linejoin="round" stroke-miterlimit="10" stroke-width=".090794"/>
  <path transform="matrix(32.425 0 0 32.425 0 -.04)" d="m14.655 26.455c0.02243-0.07252 0.07635-0.20169 0.11981-0.28704 0.31586-0.62025 0.74329-2.1005 0.88716-3.0723 0.04739-0.32011 0.10232-0.6871 0.12207-0.81555l0.03591-0.23354 0.49774-0.12203c0.98355-0.24114 2.1669-0.69458 3.2309-1.238 0.3338-0.1705 0.61514-0.30177 0.62519-0.29172 0.03872 0.03872-0.31842 0.80084-0.59212 1.2635-0.8574 1.4495-2.3458 2.9834-4.2908 4.422-0.291 0.21523-0.5623 0.41726-0.60287 0.44896-0.06054 0.04729-0.06645 0.03397-0.03298-0.07424z" fill="#fff" stroke="#000" stroke-linejoin="round" stroke-miterlimit="10" stroke-width=".090794"/>
 </g>
</svg>
